PathFileType	4	(X/Y/Z)	\\move.snu.ac.kr\motion\Animal\091204_091205_Bird\091205_bird\Project 2\Capture day 2\Session 1\pigeon_016_14markers.trc
DataRate	CameraRate	NumFrames	NumMarkers	Units	OrigDataRate	OrigDataStartFrame	OrigNumFrames
240.0	240.0	15	14	mm	240.0	232	2171
Frame#	Time	20MarkersBird:Head			20MarkersBird:C_back			20MarkersBird:L-back			20MarkersBird:R-back			20MarkersBird:Spine			20MarkersBird:L-shoulder			20MarkersBird:L-elbow			20MarkersBird:L-wrist			20MarkersBird:L-hand			20MarkersBird:L-wing1			20MarkersBird:L-wing10			20MarkersBird:R-shoulder			20MarkersBird:R-elbow			20MarkersBird:R-Wrist			20MarkersBird:R-hand			20MarkersBird:R-wing1			20MarkersBird:R-wing10			20MarkersBird:C_Tail			20MarkersBird:L-Tale			20MarkersBird:R-Tale			
		X1	Y1	Z1	X2	Y2	Z2	X3	Y3	Z3	X4	Y4	Z4	X5	Y5	Z5	X6	Y6	Z6	X7	Y7	Z7	X8	Y8	Z8	X9	Y9	Z9	X10	Y10	Z10	X11	Y11	Z11	X12	Y12	Z12	X13	Y13	Z13	X14	Y14	Z14	X15	Y15	Z15	X16	Y16	Z16	X17	Y17	Z17	X18	Y18	Z18	X19	Y19	Z19	X20	Y20	Z20	

1292	5.379	-1065.22949	1104.43066	-1013.27856	-1081.65747	1108.95544	-956.20270							-1098.67249	1103.60779	-903.07013	-1093.65503	1103.76965	-987.76526	-1098.30176	1131.58240	-961.63678	-1121.94739	1161.61145	-980.04242	-1121.66284	1188.38513	-964.75427							-1054.47583	1103.06494	-976.14801	-1067.68506	1131.03589	-957.07507	-1033.60034	1160.87964	-959.10400	-1032.62830	1199.54077	-940.32330							-1145.32690	1055.72058	-798.09430	-1198.06165	1089.93298	-893.39264	-1014.29712	1073.59351	-835.01996	
1293	5.383	-1059.85803	1100.49072	-1028.78381	-1077.58069	1104.62939	-970.69220							-1094.15283	1098.20520	-918.69061	-1088.73438	1099.97546	-1003.32336	-1098.83240	1126.48535	-978.28296	-1124.79236	1153.92554	-998.34875	-1128.44263	1183.01550	-986.80493							-1049.22791	1098.84155	-991.58099	-1057.65063	1126.61914	-970.02490	-1020.78778	1152.85706	-973.19043	-1013.92773	1191.67920	-956.67816							-1140.60132	1052.56433	-813.66174	-1192.95923	1087.02771	-909.88245	-1010.11615	1064.15894	-851.01074	
1294	5.387	-1054.62415	1096.38391	-1044.33484	-1073.49963	1100.03906	-985.79950							-1089.59937	1093.10217	-934.32813	-1083.79907	1096.34790	-1018.72534	-1100.86060	1121.32568	-996.60431	-1129.70361	1143.34167	-1016.93713	-1140.55945	1172.22070	-1009.22614							-1043.79919	1094.49182	-1007.47040	-1047.48157	1122.56738	-984.40472	-1006.43884	1141.94141	-987.27991	-991.42560	1178.47925	-972.34772							-1134.81946	1047.46423	-829.23895	-1188.18921	1082.88574	-925.88062	-1006.09009	1054.70276	-867.15833	
1295	5.392	-1049.39478	1093.07190	-1059.76270	-1069.51379	1095.65564	-1001.43066							-1084.99194	1088.48633	-950.02307	-1079.13123	1092.39502	-1034.17896	-1102.31628	1113.72827	-1014.62762	-1134.26563	1129.75940	-1036.70947	-1151.40515	1155.79395	-1033.35205							-1038.01697	1089.67285	-1023.76221	-1037.65417	1115.08179	-998.73206	-992.23468	1127.98267	-1002.73584	-968.52319	1160.17407	-988.47211							-1129.15002	1039.39734	-845.81311	-1183.73279	1078.38062	-941.41089	-1001.76184	1045.70374	-883.62170	
1296	5.396	-1044.32361	1089.61182	-1075.70239	-1065.31494	1091.94324	-1016.97955							-1080.30994	1084.54504	-965.81580	-1074.55847	1088.40466	-1050.12903	-1102.75830	1105.13208	-1033.30701	-1136.75476	1113.37573	-1057.46106	-1159.03943	1135.15369	-1058.14075							-1032.22192	1084.72607	-1040.15186	-1028.08032	1106.82800	-1012.43250	-979.97144	1111.93335	-1020.12927	-948.22748	1135.81201	-1008.41669							-1123.39453	1029.91309	-863.10913	-1179.20410	1070.81824	-956.48682	-997.16248	1037.98865	-900.46039	
1297	5.400	-1039.21289	1086.69836	-1091.75916	-1061.40369	1088.71387	-1033.51367							-1075.53296	1081.46606	-981.74670	-1070.14246	1084.27100	-1066.36426	-1100.84021	1097.33325	-1049.57605	-1135.43262	1095.12158	-1079.70801	-1161.47815	1111.09045	-1084.14050							-1027.40076	1080.31250	-1056.49255	-1016.21979	1098.15723	-1029.02917	-970.33636	1094.15747	-1040.09253	-933.12164	1108.10583	-1031.37903							-1117.87366	1020.59363	-881.66968	-1174.59058	1063.44214	-971.50903	-992.77563	1032.00452	-916.88086	
1298	5.404	-1034.20667	1083.59082	-1108.15320	-1057.14441	1085.66309	-1049.87610							-1070.64038	1079.43689	-997.85626	-1065.72766	1080.50037	-1082.95435	-1099.48889	1086.81287	-1070.82251	-1129.38464	1076.21899	-1102.21875	-1157.47217	1085.21326	-1111.01855							-1022.48987	1076.86865	-1073.27393	-1005.78540	1089.46997	-1048.29370	-964.70282	1075.66858	-1062.43469	-924.35248	1079.31628	-1057.94873							-1111.82446	1012.00818	-900.38940	-1170.52808	1054.74756	-986.25793	-988.46436	1027.36182	-933.27631	
1299	5.408	-1029.54980	1080.74292	-1124.62366	-1052.43054	1083.57654	-1066.37292							-1065.64978	1078.29736	-1014.10754	-1061.09668	1077.31506	-1099.53625	-1096.09009	1077.12988	-1090.57886	-1118.88770	1058.56885	-1124.05151	-1146.41650	1059.53247	-1137.35669							-1017.78448	1073.87524	-1089.73010	-997.61462	1079.93652	-1067.97595	-963.22943	1058.16028	-1086.42932	-923.10651	1051.34509	-1087.02527							-1104.68420	1004.58618	-918.57025	-1164.42261	1048.78955	-999.81897	-984.24017	1024.67310	-949.25360	
1300	5.412	-1024.75232	1077.94690	-1141.18323	-1047.48425	1081.35046	-1082.93823							-1061.01758	1076.73083	-1030.87158	-1056.41125	1074.58813	-1116.20520	-1088.93604	1066.36487	-1113.99988	-1104.87195	1044.06299	-1144.22278	-1128.51514	1036.29431	-1161.33032							-1013.17358	1071.38110	-1106.47876	-992.93726	1069.73657	-1088.47485	-965.37109	1043.99438	-1110.90503	-928.60706	1027.78674	-1116.55493							-1096.78052	999.02203	-936.23602	-1158.97827	1042.34070	-1013.20557	-979.65332	1023.31165	-964.79218	
1301	5.417	-1020.35724	1074.76099	-1157.79724	-1042.40637	1079.07520	-1099.50281							-1055.69177	1075.21362	-1047.67834	-1051.71460	1071.96313	-1133.00708	-1084.51941	1060.28479	-1127.68762	-1089.43823	1033.80859	-1162.80481	-1106.17017	1018.29144	-1181.75574							-1009.01453	1068.36438	-1122.92676	-989.43158	1061.61694	-1107.51318	-970.06854	1033.27881	-1134.16528	-938.61414	1009.92853	-1145.17603							-1088.37915	995.14111	-953.00568	-1152.85046	1036.61145	-1026.31360	-974.60193	1022.88123	-980.60828	
1302	5.421	-1015.72400	1071.61523	-1174.80469	-1037.32605	1076.90527	-1116.28357							-1050.34290	1072.96521	-1064.48206	-1047.12256	1069.55017	-1150.19507	-1078.11353	1053.75696	-1144.41797	-1074.10986	1028.21741	-1180.09253	-1082.22009	1007.11737	-1198.24451							-1004.00970	1065.86731	-1140.19141	-985.10657	1056.58020	-1125.33386	-974.58588	1027.60376	-1156.19714	-950.58099	999.08276	-1171.32825							-1080.79346	992.17987	-969.60608	-1146.44141	1030.91565	-1040.50757	-969.37219	1022.36481	-996.85321	
1303	5.425	-1011.14392	1068.45618	-1191.99561	-1032.13599	1074.60327	-1133.61365							-1045.29321	1070.19238	-1081.74072	-1042.42664	1066.84814	-1167.62061	-1072.32043	1049.40796	-1159.80664	-1062.01367	1028.01868	-1197.00488	-1061.13220	1004.26874	-1212.23535							-999.16382	1063.07117	-1157.61377	-981.64044	1052.07898	-1141.48804	-976.61908	1026.98755	-1175.96252	-960.39020	995.66327	-1194.97314							-1072.52893	988.11084	-985.64807	-1140.16235	1024.78027	-1055.96143	-963.90564	1020.36566	-1013.65106	
1304	5.429	-1006.54114	1065.18616	-1209.43176	-1026.92090	1071.83643	-1151.23010							-1039.90271	1066.46167	-1099.01416	-1037.52222	1063.91028	-1185.04651	-1067.83533	1046.61353	-1174.43860	-1054.47632	1031.04321	-1212.88806	-1045.62317	1008.60852	-1226.52478							-994.24304	1060.17615	-1175.32178	-976.78687	1050.09009	-1157.17188	-973.60577	1031.10071	-1194.50684	-965.16766	998.43475	-1215.83875							-1066.43567	986.68524	-1003.39789	-1133.91284	1018.48047	-1072.69043	-958.42566	1016.22174	-1031.47546	
1305	5.433	-1001.76862	1061.36877	-1227.16394	-1021.53851	1068.39856	-1169.18933							-1034.71790	1063.37952	-1116.98706	-1032.40320	1060.69812	-1202.74573	-1064.21729	1046.09705	-1188.79089	-1050.78650	1036.21313	-1228.95361	-1039.13208	1015.84631	-1242.82434							-989.44946	1057.00366	-1193.14465	-971.62482	1049.28699	-1171.92151	-968.15820	1035.64563	-1209.92053	-962.21320	1003.71179	-1233.32764							-1059.64783	983.65094	-1020.17291	-1127.79407	1012.63922	-1090.25159	-953.57141	1010.63654	-1049.59363	
1306	5.438	-997.27740	1057.75745	-1245.15210	-1016.05640	1064.34729	-1187.88086							-1029.30591	1060.86682	-1135.30920	-1027.07495	1057.18665	-1220.57129	-1060.74890	1047.33582	-1202.55127	-1049.72888	1041.75781	-1244.58386	-1039.21448	1022.11200	-1260.04089							-984.05902	1053.97681	-1211.37451	-966.14636	1050.64990	-1185.40344	-960.85724	1041.06665	-1224.56824	-954.13684	1008.79297	-1247.78784							-1053.62976	981.32550	-1037.68359	-1121.81921	1007.56659	-1107.88354	-949.55487	1004.47998	-1067.53247	
